<svg width="3152" height="531" viewBox="0 0 3152 531" fill="none" xmlns="http://www.w3.org/2000/svg">
<path d="M23.3156 24.4965H186.525L298.569 297.807H303.751L416.443 24.4965H579.004V507H450.768V227.86H447.53L340.019 503.114H262.301L155.437 226.565H151.551V507H23.3156V24.4965ZM756.462 24.4965V507H625.635V24.4965H756.462ZM988.97 507H856.848V395.603H983.789C1007.75 395.603 1028.15 391.825 1044.99 384.269C1062.05 376.713 1075 363.544 1083.85 344.762C1092.7 325.764 1097.13 299.534 1097.13 266.072C1097.13 232.394 1092.6 206.164 1083.53 187.382C1074.68 168.384 1061.51 155.107 1044.02 147.551C1026.53 139.779 1005.16 135.893 979.903 135.893H854.906V24.4965H987.027C1036.68 24.4965 1079.53 34.2113 1115.59 53.641C1151.64 72.8548 1179.49 100.488 1199.13 136.541C1218.78 172.594 1228.6 215.771 1228.6 266.072C1228.6 316.157 1218.78 359.227 1199.13 395.279C1179.7 431.332 1152.07 458.966 1116.23 478.179C1080.4 497.393 1037.98 507 988.97 507ZM933.92 24.4965V507H803.093V24.4965H933.92ZM1404.12 24.4965V507H1273.29V24.4965H1404.12Z" fill="#0052FF"/>
<path d="M1530.14 194.49H1613.82L1666.31 409.812H1670.18L1794.08 194.49H1877.33L1824.41 515H1758.59L1793.22 306.346H1790.42L1673.4 513.494H1628.45L1580.48 305.916H1577.68L1542.62 515H1477.01L1530.14 194.49ZM1991.25 519.302C1962.28 519.302 1937.25 512.634 1916.17 499.297C1895.24 485.96 1880.04 466.744 1870.57 441.648C1861.25 416.409 1859.53 386.079 1865.41 350.658C1871.14 316.384 1882.4 287.345 1899.18 263.539C1915.96 239.591 1936.39 221.378 1960.49 208.902C1984.72 196.426 2010.75 190.188 2038.57 190.188C2067.54 190.188 2092.49 196.856 2113.43 210.193C2134.36 223.529 2149.49 242.817 2158.82 268.057C2168.28 293.153 2170.07 323.554 2164.19 359.262C2158.46 393.393 2147.2 422.432 2130.42 446.381C2113.64 470.186 2093.21 488.327 2069.12 500.803C2045.02 513.136 2019.07 519.302 1991.25 519.302ZM1994.04 459.502C2011.11 459.502 2026.67 455.272 2040.72 446.811C2054.77 438.35 2066.68 426.017 2076.43 409.812C2086.18 393.608 2092.99 373.89 2096.86 350.658C2100.45 328.574 2100.31 310.146 2096.43 295.375C2092.56 280.461 2085.39 269.204 2074.92 261.603C2064.6 253.86 2051.55 249.988 2035.77 249.988C2018.85 249.988 2003.29 254.29 1989.1 262.894C1974.9 271.355 1962.92 283.688 1953.17 299.893C1943.42 316.097 1936.61 335.887 1932.74 359.262C1929.15 381.06 1929.3 399.416 1933.17 414.33C1937.04 429.244 1944.21 440.501 1954.68 448.102C1965.15 455.702 1978.27 459.502 1994.04 459.502ZM2169.05 250.418L2178.73 194.49H2441.81L2432.35 250.418H2334.26L2290.37 515H2223.48L2267.36 250.418H2169.05ZM2516.37 194.49L2463.45 515H2395.69L2448.82 194.49H2516.37ZM2630.29 519.302C2601.32 519.302 2576.3 512.634 2555.21 499.297C2534.28 485.96 2519.08 466.744 2509.61 441.648C2500.29 416.409 2498.57 386.079 2504.45 350.658C2510.19 316.384 2521.44 287.345 2538.22 263.539C2555 239.591 2575.44 221.378 2599.53 208.902C2623.76 196.426 2649.79 190.188 2677.61 190.188C2706.58 190.188 2731.53 196.856 2752.47 210.193C2773.41 223.529 2788.53 242.817 2797.86 268.057C2807.32 293.153 2809.11 323.554 2803.23 359.262C2797.5 393.393 2786.24 422.432 2769.46 446.381C2752.68 470.186 2732.25 488.327 2708.16 500.803C2684.06 513.136 2658.11 519.302 2630.29 519.302ZM2633.08 459.502C2650.15 459.502 2665.71 455.272 2679.76 446.811C2693.82 438.35 2705.72 426.017 2715.47 409.812C2725.22 393.608 2732.03 373.89 2735.91 350.658C2739.49 328.574 2739.35 310.146 2735.48 295.375C2731.6 280.461 2724.43 269.204 2713.96 261.603C2703.64 253.86 2690.59 249.988 2674.81 249.988C2657.89 249.988 2642.33 254.29 2628.14 262.894C2613.94 271.355 2601.97 283.688 2592.21 299.893C2582.46 316.097 2575.65 335.887 2571.78 359.262C2568.19 381.06 2568.34 399.416 2572.21 414.33C2576.08 429.244 2583.25 440.501 2593.72 448.102C2604.19 455.702 2617.31 459.502 2633.08 459.502ZM3112.04 194.49L3058.91 515H3000.19L2894.57 313.444H2892.2L2858.65 515H2790.89L2844.02 194.49H2903.6L3008.36 396.046H3011.37L3044.5 194.49H3112.04Z" fill="#333333"/>
</svg>
