<svg width="1895" height="1895" viewBox="0 0 1895 1895" fill="none" xmlns="http://www.w3.org/2000/svg">
<path d="M133.316 861.496H296.525L408.569 1134.81H413.751L526.443 861.496H689.004V1344H560.768V1064.86H557.53L450.019 1340.11H372.301L265.437 1063.57H261.551V1344H133.316V861.496ZM866.462 861.496V1344H735.635V861.496H866.462ZM1098.97 1344H966.848V1232.6H1093.79C1117.75 1232.6 1138.15 1228.83 1154.99 1221.27C1172.05 1213.71 1185 1200.54 1193.85 1181.76C1202.7 1162.76 1207.13 1136.53 1207.13 1103.07C1207.13 1069.39 1202.6 1043.16 1193.53 1024.38C1184.68 1005.38 1171.51 992.107 1154.02 984.551C1136.53 976.779 1115.16 972.893 1089.9 972.893H964.906V861.496H1097.03C1146.68 861.496 1189.53 871.211 1225.59 890.641C1261.64 909.855 1289.49 937.488 1309.13 973.541C1328.78 1009.59 1338.6 1052.77 1338.6 1103.07C1338.6 1153.16 1328.78 1196.23 1309.13 1232.28C1289.7 1268.33 1262.07 1295.97 1226.23 1315.18C1190.4 1334.39 1147.98 1344 1098.97 1344ZM1043.92 861.496V1344H913.093V861.496H1043.92ZM1514.12 861.496V1344H1383.29V861.496H1514.12Z" fill="#0052FF"/>
<path d="M163.777 1431.86H247.454L299.94 1647.18H303.812L427.714 1431.86H510.96L458.044 1752.37H392.221L426.853 1543.71H424.057L307.038 1750.86H262.081L214.112 1543.28H211.316L176.253 1752.37H110.645L163.777 1431.86ZM624.881 1756.67C595.913 1756.67 570.889 1750 549.809 1736.66C528.872 1723.33 513.671 1704.11 504.206 1679.01C494.885 1653.78 493.164 1623.45 499.043 1588.02C504.779 1553.75 516.037 1524.71 532.815 1500.91C549.594 1476.96 570.029 1458.74 594.121 1446.27C618.356 1433.79 644.384 1427.55 672.205 1427.55C701.173 1427.55 726.125 1434.22 747.062 1447.56C767.999 1460.9 783.128 1480.18 792.45 1505.42C801.915 1530.52 803.707 1560.92 797.827 1596.63C792.091 1630.76 780.834 1659.8 764.056 1683.75C747.277 1707.55 726.842 1725.69 702.75 1738.17C678.658 1750.5 652.702 1756.67 624.881 1756.67ZM627.678 1696.87C644.743 1696.87 660.302 1692.64 674.356 1684.18C688.41 1675.72 700.312 1663.38 710.064 1647.18C719.815 1630.97 726.627 1611.26 730.499 1588.02C734.084 1565.94 733.941 1547.51 730.069 1532.74C726.197 1517.83 719.026 1506.57 708.558 1498.97C698.233 1491.23 685.183 1487.35 669.408 1487.35C652.487 1487.35 636.927 1491.66 622.73 1500.26C608.533 1508.72 596.559 1521.05 586.807 1537.26C577.056 1553.46 570.244 1573.25 566.372 1596.63C562.787 1618.43 562.93 1636.78 566.802 1651.7C570.674 1666.61 577.844 1677.87 588.313 1685.47C598.781 1693.07 611.903 1696.87 627.678 1696.87ZM802.689 1487.78L812.369 1431.86H1075.45L1065.98 1487.78H967.891L924.01 1752.37H857.111L900.993 1487.78H802.689ZM1150 1431.86L1097.08 1752.37H1029.33L1082.46 1431.86H1150ZM1263.92 1756.67C1234.95 1756.67 1209.93 1750 1188.85 1736.66C1167.91 1723.33 1152.71 1704.11 1143.25 1679.01C1133.93 1653.78 1132.2 1623.45 1138.08 1588.02C1143.82 1553.75 1155.08 1524.71 1171.86 1500.91C1188.63 1476.96 1209.07 1458.74 1233.16 1446.27C1257.4 1433.79 1283.43 1427.55 1311.25 1427.55C1340.21 1427.55 1365.17 1434.22 1386.1 1447.56C1407.04 1460.9 1422.17 1480.18 1431.49 1505.42C1440.96 1530.52 1442.75 1560.92 1436.87 1596.63C1431.13 1630.76 1419.88 1659.8 1403.1 1683.75C1386.32 1707.55 1365.88 1725.69 1341.79 1738.17C1317.7 1750.5 1291.74 1756.67 1263.92 1756.67ZM1266.72 1696.87C1283.78 1696.87 1299.34 1692.64 1313.4 1684.18C1327.45 1675.72 1339.35 1663.38 1349.1 1647.18C1358.86 1630.97 1365.67 1611.26 1369.54 1588.02C1373.13 1565.94 1372.98 1547.51 1369.11 1532.74C1365.24 1517.83 1358.07 1506.57 1347.6 1498.97C1337.27 1491.23 1324.22 1487.35 1308.45 1487.35C1291.53 1487.35 1275.97 1491.66 1261.77 1500.26C1247.57 1508.72 1235.6 1521.05 1225.85 1537.26C1216.1 1553.46 1209.28 1573.25 1205.41 1596.63C1201.83 1618.43 1201.97 1636.78 1205.84 1651.7C1209.72 1666.61 1216.89 1677.87 1227.35 1685.47C1237.82 1693.07 1250.94 1696.87 1266.72 1696.87ZM1745.68 1431.86L1692.55 1752.37H1633.82L1528.2 1550.81H1525.84L1492.28 1752.37H1424.52L1477.65 1431.86H1537.24L1642 1633.41H1645.01L1678.13 1431.86H1745.68Z" fill="#333333"/>
</svg>
