<svg width="173" height="98" viewBox="0 0 173 98" fill="none" xmlns="http://www.w3.org/2000/svg">
<path d="M2.42404 2.83587H19.3923L31.0412 31.251H31.5798L43.296 2.83587H60.197V53H46.8647V23.9789H46.5281L35.3506 52.596H27.2704L16.1603 23.8442H15.7562V53H2.42404V2.83587ZM78.6466 2.83587V53H65.045V2.83587H78.6466ZM102.82 53H89.0834V41.4185H102.281C104.772 41.4185 106.893 41.0257 108.644 40.2401C110.417 39.4546 111.764 38.0854 112.684 36.1327C113.604 34.1576 114.064 31.4305 114.064 27.9516C114.064 24.4502 113.593 21.7232 112.65 19.7705C111.73 17.7953 110.361 16.415 108.543 15.6294C106.725 14.8214 104.503 14.4174 101.877 14.4174H88.8814V2.83587H102.618C107.78 2.83587 112.235 3.84589 115.984 5.86592C119.732 7.86351 122.627 10.7364 124.67 14.4847C126.712 18.233 127.733 22.722 127.733 27.9516C127.733 33.1588 126.712 37.6365 124.67 41.3848C122.65 45.1331 119.777 48.006 116.051 50.0036C112.325 52.0012 107.915 53 102.82 53ZM97.0962 2.83587V53H83.4947V2.83587H97.0962ZM145.981 2.83587V53H132.379V2.83587H145.981Z" fill="#0052FF"/>
<path d="M5.59098 61.7061H14.2906L19.7474 84.0924H20.1499L33.0315 61.7061H41.6864L36.1848 95.0283H29.3415L32.9421 73.3353H32.6513L20.4854 94.8718H15.8113L10.8241 73.2906H10.5334L6.88809 95.0283H0.0670918L5.59098 61.7061ZM53.5303 95.4756C50.5186 95.4756 47.917 94.7823 45.7253 93.3958C43.5485 92.0092 41.9682 90.0113 40.9841 87.4022C40.015 84.7782 39.8361 81.6249 40.4474 77.9423C41.0438 74.379 42.2142 71.3598 43.9585 68.8849C45.7029 66.395 47.8275 64.5016 50.3323 63.2044C52.8519 61.9073 55.558 61.2588 58.4504 61.2588C61.4621 61.2588 64.0563 61.9521 66.233 63.3386C68.4098 64.7252 69.9827 66.7305 70.9518 69.3545C71.9358 71.9637 72.1222 75.1244 71.5109 78.8368C70.9145 82.3852 69.7442 85.4044 67.9998 87.8942C66.2554 90.3692 64.1308 92.2552 61.6261 93.5523C59.1213 94.8345 56.4227 95.4756 53.5303 95.4756ZM53.821 89.2584C55.5952 89.2584 57.2129 88.8186 58.674 87.939C60.1351 87.0593 61.3726 85.7771 62.3864 84.0924C63.4003 82.4076 64.1085 80.3576 64.511 77.9423C64.8837 75.6462 64.8688 73.7304 64.4663 72.1947C64.0637 70.6442 63.3183 69.4738 62.2299 68.6836C61.1564 67.8785 59.7997 67.476 58.1596 67.476C56.4003 67.476 54.7827 67.9232 53.3067 68.8178C51.8307 69.6974 50.5857 70.9796 49.5719 72.6644C48.5581 74.3491 47.8499 76.4066 47.4473 78.8368C47.0746 81.103 47.0895 83.0114 47.492 84.562C47.8946 86.1126 48.6401 87.2829 49.7284 88.0731C50.8168 88.8633 52.181 89.2584 53.821 89.2584ZM72.0163 67.5207L73.0227 61.7061H100.374L99.3898 67.5207H89.1918L84.6296 95.0283H77.6744L82.2367 67.5207H72.0163ZM108.125 61.7061L102.624 95.0283H95.579L101.103 61.7061H108.125ZM119.969 95.4756C116.957 95.4756 114.356 94.7823 112.164 93.3958C109.987 92.0092 108.407 90.0113 107.423 87.4022C106.454 84.7782 106.275 81.6249 106.886 77.9423C107.483 74.379 108.653 71.3598 110.397 68.8849C112.142 66.395 114.266 64.5016 116.771 63.2044C119.291 61.9073 121.997 61.2588 124.889 61.2588C127.901 61.2588 130.495 61.9521 132.672 63.3386C134.849 64.7252 136.421 66.7305 137.391 69.3545C138.375 71.9637 138.561 75.1244 137.95 78.8368C137.353 82.3852 136.183 85.4044 134.439 87.8942C132.694 90.3692 130.57 92.2552 128.065 93.5523C125.56 94.8345 122.861 95.4756 119.969 95.4756ZM120.26 89.2584C122.034 89.2584 123.652 88.8186 125.113 87.939C126.574 87.0593 127.811 85.7771 128.825 84.0924C129.839 82.4076 130.547 80.3576 130.95 77.9423C131.323 75.6462 131.308 73.7304 130.905 72.1947C130.502 70.6442 129.757 69.4738 128.669 68.6836C127.595 67.8785 126.238 67.476 124.598 67.476C122.839 67.476 121.221 67.9232 119.745 68.8178C118.269 69.6974 117.024 70.9796 116.011 72.6644C114.997 74.3491 114.289 76.4066 113.886 78.8368C113.513 81.103 113.528 83.0114 113.931 84.562C114.333 86.1126 115.079 87.2829 116.167 88.0731C117.256 88.8633 118.62 89.2584 120.26 89.2584ZM170.055 61.7061L164.531 95.0283H158.426L147.445 74.0733H147.199L143.711 95.0283H136.666L142.19 61.7061H148.385L159.276 82.6611H159.589L163.033 61.7061H170.055Z" fill="#BDBDBD"/>
</svg>
