<svg width="328" height="55" viewBox="0 0 328 55" fill="none" xmlns="http://www.w3.org/2000/svg">
<path d="M2.42404 2.83587H19.3923L31.0412 31.251H31.5798L43.296 2.83587H60.197V53H46.8647V23.9789H46.5281L35.3506 52.596H27.2704L16.1603 23.8442H15.7562V53H2.42404V2.83587ZM78.6466 2.83587V53H65.045V2.83587H78.6466ZM102.82 53H89.0834V41.4185H102.281C104.772 41.4185 106.893 41.0257 108.644 40.2401C110.417 39.4546 111.764 38.0854 112.684 36.1327C113.604 34.1576 114.064 31.4305 114.064 27.9516C114.064 24.4502 113.593 21.7232 112.65 19.7705C111.73 17.7953 110.361 16.415 108.543 15.6294C106.725 14.8214 104.503 14.4174 101.877 14.4174H88.8814V2.83587H102.618C107.78 2.83587 112.235 3.84589 115.984 5.86592C119.732 7.86351 122.627 10.7364 124.67 14.4847C126.712 18.233 127.733 22.722 127.733 27.9516C127.733 33.1588 126.712 37.6365 124.67 41.3848C122.65 45.1331 119.777 48.006 116.051 50.0036C112.325 52.0012 107.915 53 102.82 53ZM97.0962 2.83587V53H83.4947V2.83587H97.0962ZM145.981 2.83587V53H132.379V2.83587H145.981Z" fill="#0052FF"/>
<path d="M159.619 19.6777H168.319L173.776 42.064H174.178L187.06 19.6777H195.715L190.213 53H183.37L186.97 31.307H186.68L174.514 52.8435H169.84L164.852 31.2623H164.562L160.916 53H154.095L159.619 19.6777ZM207.559 53.4473C204.547 53.4473 201.945 52.754 199.754 51.3674C197.577 49.9809 195.996 47.983 195.012 45.3739C194.043 42.7499 193.864 39.5965 194.476 35.914C195.072 32.3506 196.242 29.3315 197.987 26.8566C199.731 24.3667 201.856 22.4732 204.361 21.1761C206.88 19.879 209.586 19.2305 212.479 19.2305C215.49 19.2305 218.085 19.9237 220.261 21.3103C222.438 22.6969 224.011 24.7022 224.98 27.3262C225.964 29.9353 226.151 33.0961 225.539 36.8085C224.943 40.3569 223.772 43.3761 222.028 45.8659C220.284 48.3408 218.159 50.2269 215.654 51.524C213.15 52.8062 210.451 53.4473 207.559 53.4473ZM207.849 47.2301C209.624 47.2301 211.241 46.7903 212.702 45.9106C214.163 45.031 215.401 43.7488 216.415 42.064C217.429 40.3793 218.137 38.3293 218.539 35.914C218.912 33.6179 218.897 31.7021 218.495 30.1664C218.092 28.6159 217.347 27.4455 216.258 26.6553C215.185 25.8502 213.828 25.4476 212.188 25.4476C210.429 25.4476 208.811 25.8949 207.335 26.7895C205.859 27.6691 204.614 28.9513 203.6 30.6361C202.586 32.3208 201.878 34.3783 201.476 36.8085C201.103 39.0747 201.118 40.9831 201.52 42.5337C201.923 44.0842 202.668 45.2546 203.757 46.0448C204.845 46.835 206.209 47.2301 207.849 47.2301ZM226.045 25.4924L227.051 19.6777H254.402L253.418 25.4924H243.22L238.658 53H231.703L236.265 25.4924H226.045ZM262.153 19.6777L256.652 53H249.607L255.131 19.6777H262.153ZM273.997 53.4473C270.986 53.4473 268.384 52.754 266.192 51.3674C264.016 49.9809 262.435 47.983 261.451 45.3739C260.482 42.7499 260.303 39.5965 260.915 35.914C261.511 32.3506 262.681 29.3315 264.426 26.8566C266.17 24.3667 268.295 22.4732 270.799 21.1761C273.319 19.879 276.025 19.2305 278.917 19.2305C281.929 19.2305 284.523 19.9237 286.7 21.3103C288.877 22.6969 290.45 24.7022 291.419 27.3262C292.403 29.9353 292.589 33.0961 291.978 36.8085C291.382 40.3569 290.211 43.3761 288.467 45.8659C286.722 48.3408 284.598 50.2269 282.093 51.524C279.588 52.8062 276.89 53.4473 273.997 53.4473ZM274.288 47.2301C276.062 47.2301 277.68 46.7903 279.141 45.9106C280.602 45.031 281.84 43.7488 282.854 42.064C283.867 40.3793 284.576 38.3293 284.978 35.914C285.351 33.6179 285.336 31.7021 284.933 30.1664C284.531 28.6159 283.785 27.4455 282.697 26.6553C281.624 25.8502 280.267 25.4476 278.627 25.4476C276.867 25.4476 275.25 25.8949 273.774 26.7895C272.298 27.6691 271.053 28.9513 270.039 30.6361C269.025 32.3208 268.317 34.3783 267.914 36.8085C267.542 39.0747 267.557 40.9831 267.959 42.5337C268.362 44.0842 269.107 45.2546 270.196 46.0448C271.284 46.835 272.648 47.2301 274.288 47.2301ZM324.084 19.6777L318.56 53H312.454L301.474 32.045H301.228L297.739 53H290.694L296.218 19.6777H302.413L313.304 40.6327H313.617L317.061 19.6777H324.084Z" fill="#BDBDBD"/>
</svg>
